<?xml version="1.0" standalone="no"?>
<!DOCTYPE svg PUBLIC "-//W3C//DTD SVG 20010904//EN"
 "http://www.w3.org/TR/2001/REC-SVG-20010904/DTD/svg10.dtd">
<svg version="1.0" xmlns="http://www.w3.org/2000/svg"
 width="1280.000000pt" height="640.000000pt" viewBox="0 0 1280.000000 640.000000"
 preserveAspectRatio="xMidYMid meet">
<metadata>
Created by potrace 1.15, written by Peter Selinger 2001-2017
</metadata>
<g transform="translate(0.000000,640.000000) scale(0.100000,-0.100000)"
fill="#000000" stroke="none">
<path d="M12088 6140 c-20 -11 -45 -34 -56 -52 -24 -40 -26 -50 -97 -543 -30
-214 -58 -400 -60 -412 l-5 -23 -848 -2 -847 -3 -43 -23 c-145 -77 -241 -289
-267 -587 -4 -47 3 -146 19 -295 14 -124 89 -799 166 -1500 77 -701 151 -1374
165 -1495 13 -121 29 -278 34 -350 27 -336 142 -560 312 -605 25 -7 314 -10
816 -8 l778 3 41 22 c144 77 241 299 264 605 6 79 21 256 35 393 14 138 56
576 95 975 39 399 81 838 95 975 13 138 45 466 71 730 44 449 46 487 36 590
-28 275 -128 482 -267 550 -32 16 -67 20 -172 23 -119 4 -133 6 -133 22 0 9
27 203 60 429 33 227 60 424 60 438 0 43 -38 110 -76 133 -49 31 -130 36 -176
10z"/>
<path d="M7655 4602 c-70 -33 -104 -93 -106 -184 -1 -57 -4 -55 -14 5 -7 45
-57 105 -102 123 -104 44 -234 -14 -263 -116 -5 -19 11 -286 46 -752 29 -398
54 -731 54 -740 0 -12 -8 -18 -24 -18 -22 0 -25 6 -30 43 -3 23 -29 359 -57
747 -56 775 -54 762 -124 815 -71 55 -202 42 -259 -26 -51 -60 -51 -57 -1
-714 25 -335 50 -664 55 -730 9 -112 4 -152 -17 -132 -4 4 -30 330 -59 725
-30 394 -56 736 -59 759 -26 187 -305 209 -365 28 -9 -26 -7 -98 9 -314 12
-153 21 -292 20 -308 -1 -15 -31 121 -68 303 -48 237 -74 341 -90 367 -41 67
-147 96 -229 62 -74 -32 -112 -86 -112 -162 0 -26 63 -363 140 -748 77 -385
140 -703 140 -707 0 -12 -68 -10 -75 2 -3 5 -68 320 -144 699 -154 769 -146
742 -236 776 -51 20 -125 16 -174 -9 -44 -23 -83 -79 -88 -129 -4 -29 33 -235
122 -682 69 -352 128 -647 131 -656 3 -12 -13 -25 -59 -47 -124 -61 -213 -181
-237 -318 -12 -69 -37 43 307 -1354 63 -256 125 -518 138 -584 18 -88 32 -132
57 -173 62 -103 168 -179 283 -203 34 -7 362 -10 980 -8 l930 3 76 36 c144 69
216 171 249 350 10 57 104 502 210 989 184 853 191 887 181 943 -12 70 -49
155 -91 206 -22 29 -104 93 -148 117 -2 1 49 341 113 755 70 454 114 766 110
785 -15 84 -93 144 -188 144 -80 0 -131 -30 -167 -99 -7 -14 -37 -176 -65
-360 -60 -381 -63 -375 -41 79 8 163 9 278 4 298 -13 47 -73 110 -116 122
-104 28 -209 -17 -242 -104 -7 -20 -80 -1442 -80 -1575 0 -9 -3 -11 -9 -5 -6
5 3 299 25 776 l35 768 -20 44 c-39 89 -164 131 -256 88z"/>
<path d="M1840 4523 c-130 -8 -346 -36 -483 -63 -747 -150 -1224 -572 -1311
-1162 -28 -190 -18 -284 35 -322 22 -15 193 -16 2052 -16 2227 0 2070 -4 2097
60 21 51 7 284 -23 400 -174 649 -770 1027 -1736 1100 -123 9 -496 11 -631 3z"/>
<path d="M130 2747 c-33 -16 -64 -80 -55 -114 3 -14 19 -38 35 -54 l28 -29
1969 0 c1850 0 1969 1 1989 18 55 44 59 109 10 158 l-34 34 -1959 0 c-1540 0
-1963 -3 -1983 -13z"/>
<path d="M174 2397 c-75 -29 -132 -87 -160 -164 -37 -104 7 -227 104 -291 l55
-37 1919 -3 c1850 -2 1921 -2 1961 16 101 45 157 130 157 238 0 109 -67 204
-169 239 -39 13 -265 15 -1940 14 -1425 0 -1904 -3 -1927 -12z"/>
<path d="M77 1790 c-40 -31 -51 -80 -44 -194 41 -711 609 -1199 1537 -1320
396 -52 892 -45 1260 19 488 84 881 279 1114 555 189 223 282 457 293 735 6
151 -3 191 -46 215 -13 7 -678 10 -2054 10 -2024 0 -2034 0 -2060 -20z"/>
</g>
</svg>
